<svg width="20" height="20" viewBox="0 0 20 20" fill="none" xmlns="http://www.w3.org/2000/svg">
<path opacity="0.5" d="M10.0001 13.3333C5.20017 13.3333 4.34985 8.54962 4.19921 4.75539C4.15731 3.69998 4.13636 3.17227 4.53279 2.68403C4.92923 2.19578 5.4037 2.11573 6.35264 1.95562C7.28936 1.79757 8.51383 1.66667 10.0001 1.66667C11.4864 1.66667 12.7109 1.79757 13.6476 1.95562C14.5965 2.11573 15.071 2.19578 15.4674 2.68403C15.8639 3.17227 15.8429 3.69998 15.801 4.75539C15.6504 8.54962 14.8001 13.3333 10.0001 13.3333Z" fill="#B9C5E0"/>
<path d="M14.7003 10.3517L17.0474 9.0477C17.6744 8.69935 17.9879 8.52517 18.1606 8.23175C18.3332 7.93832 18.3333 7.57967 18.3333 6.86239L18.3333 6.80195C18.3333 5.93227 18.3333 5.49744 18.0974 5.17007C17.8614 4.8427 17.4489 4.70519 16.6238 4.43017L15.8333 4.16667L15.8192 4.2372C15.8153 4.39492 15.8085 4.56672 15.801 4.75538C15.7274 6.60904 15.4868 8.69888 14.7003 10.3517Z" fill="#B9C5E0"/>
<path d="M4.19921 4.75539C4.27281 6.60914 4.51342 8.69907 5.30006 10.3519L2.95253 9.0477C2.32551 8.69935 2.012 8.52517 1.83935 8.23175C1.66669 7.93832 1.66668 7.57967 1.66666 6.86239L1.66666 6.80195C1.66663 5.93228 1.66662 5.49744 1.90257 5.17007C2.13852 4.8427 2.55104 4.70519 3.37609 4.43017L4.16661 4.16667L4.18106 4.23892C4.18495 4.39618 4.19175 4.56741 4.19921 4.75539Z" fill="#B9C5E0"/>
<path fill-rule="evenodd" clip-rule="evenodd" d="M4.375 18.3333C4.375 17.9882 4.65482 17.7083 5 17.7083H15C15.3452 17.7083 15.625 17.9882 15.625 18.3333C15.625 18.6785 15.3452 18.9583 15 18.9583H5C4.65482 18.9583 4.375 18.6785 4.375 18.3333Z" fill="#B9C5E0"/>
<path opacity="0.5" d="M12.8814 17.7083H7.11874L7.36609 16.2501C7.444 15.8606 7.78601 15.5802 8.18324 15.5802H11.8169C12.2141 15.5802 12.5561 15.8606 12.6341 16.2501L12.8814 17.7083Z" fill="#B9C5E0"/>
<path d="M10.0001 13.3335C9.78383 13.3335 9.57555 13.3238 9.375 13.3049V15.5802H10.625V13.3049C10.4245 13.3238 10.2163 13.3335 10.0001 13.3335Z" fill="#B9C5E0"/>
<path d="M9.28829 5.01876C9.60495 4.4507 9.76328 4.16667 10 4.16667C10.2367 4.16667 10.395 4.4507 10.7117 5.01876L10.7936 5.16572C10.8836 5.32715 10.9286 5.40786 10.9988 5.46112C11.0689 5.51437 11.1563 5.53414 11.331 5.57368L11.4901 5.60967C12.105 5.7488 12.4125 5.81837 12.4856 6.0536C12.5588 6.28883 12.3492 6.53393 11.93 7.02415L11.8215 7.15097C11.7024 7.29027 11.6428 7.35993 11.616 7.44609C11.5892 7.53226 11.5982 7.62519 11.6163 7.81105L11.6327 7.98026C11.696 8.63432 11.7277 8.96134 11.5362 9.10672C11.3447 9.2521 11.0568 9.11955 10.4811 8.85446L10.3321 8.78588C10.1685 8.71054 10.0867 8.67288 10 8.67288C9.91329 8.67288 9.83148 8.71054 9.66787 8.78588L9.51892 8.85446C8.94317 9.11955 8.65529 9.2521 8.46379 9.10672C8.27228 8.96134 8.30397 8.63432 8.36735 7.98027L8.38375 7.81105C8.40176 7.62519 8.41076 7.53226 8.38397 7.44609C8.35717 7.35993 8.29761 7.29027 8.17848 7.15097L8.07002 7.02415C7.65081 6.53393 7.44121 6.28883 7.51436 6.0536C7.5875 5.81837 7.89496 5.7488 8.50988 5.60967L8.66897 5.57368C8.84371 5.53414 8.93108 5.51437 9.00124 5.46112C9.07139 5.40786 9.11638 5.32715 9.20637 5.16572L9.28829 5.01876Z" fill="#B9C5E0"/>
</svg>
