<svg width="20" height="20" viewBox="0 0 20 20" fill="none" xmlns="http://www.w3.org/2000/svg">
<path fill-rule="evenodd" clip-rule="evenodd" d="M12.5004 2.70834C12.8455 2.70834 13.1254 2.98816 13.1254 3.33334V4.16667C13.1254 4.97208 12.4724 5.625 11.667 5.625H10.8337C10.7186 5.625 10.6254 5.71828 10.6254 5.83334V6.66667H10.9767C13.0926 6.66667 14.1505 6.66667 14.9639 7.17806C15.1698 7.30748 15.3608 7.45904 15.5337 7.63003C16.2168 8.30566 16.4577 9.33583 16.9393 11.3961L17.7913 15.0409C18.0908 16.3222 17.2947 17.6036 16.0133 17.9025C14.9327 18.1547 13.8212 17.6272 13.3331 16.6307L13.2326 16.4255C12.7845 15.5106 11.8545 14.9306 10.8358 14.9306H9.16499C8.14621 14.9306 7.21629 15.5106 6.76816 16.4255L6.66763 16.6307C6.17955 17.6272 5.06802 18.1547 3.98745 17.9025C2.70608 17.6036 1.90991 16.3222 2.20942 15.0409L3.06146 11.3961C3.54309 9.33582 3.7839 8.30566 4.46702 7.63003C4.6399 7.45904 4.83098 7.30748 5.03683 7.17806C5.85022 6.66667 6.90815 6.66667 9.024 6.66667H9.37537V5.83334C9.37537 5.02792 10.0283 4.375 10.8337 4.375H11.667C11.7821 4.375 11.8754 4.28173 11.8754 4.16667V3.33334C11.8754 2.98816 12.1552 2.70834 12.5004 2.70834ZM13.3337 10C13.3337 10.4602 12.9606 10.8333 12.5004 10.8333C12.0401 10.8333 11.667 10.4602 11.667 10C11.667 9.53976 12.0401 9.16667 12.5004 9.16667C12.9606 9.16667 13.3337 9.53976 13.3337 10ZM7.0837 9.375C7.42888 9.375 7.7087 9.65482 7.7087 10V10.625H8.3337C8.67888 10.625 8.9587 10.9048 8.9587 11.25C8.9587 11.5952 8.67888 11.875 8.3337 11.875H7.7087V12.5C7.7087 12.8452 7.42888 13.125 7.0837 13.125C6.73852 13.125 6.4587 12.8452 6.4587 12.5V11.875H5.8337C5.48852 11.875 5.2087 11.5952 5.2087 11.25C5.2087 10.9048 5.48852 10.625 5.8337 10.625H6.4587V10C6.4587 9.65482 6.73852 9.375 7.0837 9.375ZM14.167 12.9167C14.6273 12.9167 15.0004 12.5436 15.0004 12.0833C15.0004 11.6231 14.6273 11.25 14.167 11.25C13.7068 11.25 13.3337 11.6231 13.3337 12.0833C13.3337 12.5436 13.7068 12.9167 14.167 12.9167Z" fill="#B9C5E0"/>
</svg>
