<svg width="20" height="20" viewBox="0 0 20 20" fill="none" xmlns="http://www.w3.org/2000/svg">
<mask id="mask0_1_2391" style="mask-type:luminance" maskUnits="userSpaceOnUse" x="1" y="1" width="18" height="18">
<path d="M18.3333 1.77084H1.66666V18.2481H18.3333V1.77084Z" fill="white"/>
</mask>
<g mask="url(#mask0_1_2391)">
<path d="M18.322 2.90475C18.2362 3.45838 18.0223 3.99244 17.6509 4.41098C16.9228 5.2735 16.1135 6.05888 15.2385 6.77175C13.8685 7.93255 12.4527 9.03942 11.0521 10.1627C10.1089 10.8813 9.14558 11.5733 8.18604 12.2693C7.73787 12.6801 7.29808 13.2016 6.61737 13.1235C5.66585 12.8698 5.98485 11.6484 6.47656 11.0985C7.21793 10.1563 8.00879 9.25361 8.81512 8.36654C10.7966 6.17617 14.4145 1.83234 17.5221 1.77914C18.0881 1.88743 18.3489 2.34454 18.322 2.90475Z" fill="#B9C5E0"/>
<path d="M16.9012 13.8573C16.9119 14.2977 16.7295 14.6333 16.3919 14.8984C15.2945 16.012 13.0415 11.2761 12.51 10.4846C12.3358 10.1339 12.3187 9.66144 12.6249 9.39425C13.2238 8.8649 13.8287 8.34235 14.4319 7.81802C14.8288 7.41387 15.4336 6.99175 15.7732 7.7025C16.2904 9.7154 16.7367 11.7791 16.9012 13.8573Z" fill="#B9C5E0"/>
<path d="M5.0672 2.69154C5.1067 1.99781 5.99474 1.74865 6.56962 1.92649C8.36137 2.42219 10.1478 2.97729 11.8679 3.6801C12.2169 3.88881 12.2807 4.27677 11.9974 4.56746C11.3001 5.27829 10.5649 5.95242 9.88362 6.67929C9.65112 6.92625 9.52345 6.96458 9.24314 6.77804C8.92755 6.56804 8.6161 6.34706 8.32822 6.10115C7.55324 5.31908 5.14266 3.69542 5.0672 2.69154Z" fill="#B9C5E0"/>
<path d="M7.94626 17.0622C7.95905 16.8709 8.09634 16.7081 8.26265 16.5605C9.4174 15.5652 10.5341 14.5303 11.6091 13.4494C11.7757 13.2891 11.9584 13.1447 12.1404 13.0014C12.5701 12.6321 13.0454 13.1697 12.6336 13.5521C11.403 14.7699 10.1541 15.9694 8.93045 17.1942C8.6658 17.5345 7.94784 17.6801 7.94626 17.0622Z" fill="#B9C5E0"/>
<path d="M6.23736 6.29073C5.28806 7.59498 4.02546 8.68675 2.96325 9.91234C2.75729 10.1257 2.5856 10.3933 2.31504 10.5297C1.97479 10.7286 1.52953 10.3218 1.72307 9.97236C1.79316 9.83119 1.90612 9.70619 2.01835 9.59194C3.00023 8.66165 3.89365 7.64523 4.83494 6.67498C5.16738 6.38998 6.00911 5.45113 6.23736 6.29073Z" fill="#B9C5E0"/>
<path d="M6.20415 14.1914C5.84465 14.7898 5.1849 15.2374 4.7073 15.7528C4.17555 16.212 3.74265 16.8189 3.11647 17.151C2.97909 17.2142 2.83401 17.2024 2.71849 17.0876C2.47099 16.8426 2.72597 16.5118 2.90743 16.3173C3.74828 15.5275 4.59603 14.745 5.44295 13.9616C5.69399 13.6529 6.19795 13.6797 6.20415 14.1914Z" fill="#B9C5E0"/>
<path d="M9.94102 13.442C9.84818 15.1957 7.92095 14.2892 8.19252 12.9442C8.28943 12.5537 8.72343 12.3723 8.99935 12.1153C9.19716 11.9613 9.41689 12.0232 9.61966 12.0942C9.89125 12.2511 9.84941 13.1014 9.94102 13.442Z" fill="#B9C5E0"/>
<path d="M4.98306 9.7225C5.29746 8.8891 6.2026 8.94421 6.86413 9.32929C7.69513 9.78327 6.70702 10.4949 6.34554 10.913C6.29385 10.9651 6.17854 10.9973 6.10708 10.9796C5.44862 10.8518 5.14565 10.3489 4.98306 9.7225Z" fill="#B9C5E0"/>
<path d="M12.7423 18.239C12.2368 18.2638 12.1207 17.7652 12.432 17.4711C12.6058 17.3108 12.7796 17.1503 12.9499 16.9862C13.3192 16.6304 13.686 16.2719 14.055 15.9157C14.1995 15.7619 14.4541 15.6923 14.6066 15.8544C14.7723 16.0043 14.7102 16.259 14.5571 16.4058C14.1729 16.8232 13.7872 17.2391 13.4027 17.6561C13.232 17.8652 12.9739 18.1443 12.7423 18.239Z" fill="#B9C5E0"/>
<path d="M2.97405 5.3989C2.53088 5.40721 2.32836 4.96786 2.58799 4.66923C2.69113 4.55082 2.81172 4.44701 2.92886 4.34148C3.22451 4.09005 3.49711 3.80428 3.81455 3.58119C4.1503 3.37869 4.53438 3.76944 4.33442 4.10348C4.02515 4.50888 3.63007 4.8498 3.27409 5.21482C3.17686 5.30792 3.03999 5.35967 2.97405 5.3989Z" fill="#B9C5E0"/>
</g>
</svg>
