<svg width="18" height="20" viewBox="0 0 18 20" fill="none" xmlns="http://www.w3.org/2000/svg">
<path d="M9.12942 5.13422C9.44627 5.24561 9.68977 5.50519 9.77673 5.83052L11.7563 13.2372H5.81696L7.79656 5.83052C7.93473 5.31358 8.45181 4.99596 8.97412 5.09283L9.04873 5.10951L9.12942 5.13422Z" fill="#B9C5E0"/>
<path d="M6.02138 5.47748C5.25776 5.47748 4.63873 4.86439 4.63873 4.10811C4.63873 3.35183 5.25776 2.73874 6.02138 2.73874C6.62161 2.73874 7.13251 3.11754 7.32366 3.64694L8.32576 3.64703L8.32573 2.6608C7.78874 2.4728 7.40402 1.96558 7.40402 1.36937C7.40402 0.613088 8.02306 0 8.78667 0C9.55028 0 10.1693 0.613088 10.1693 1.36937C10.1693 1.96552 9.78467 2.4727 9.24777 2.66074L9.24738 3.64703L10.2497 3.64694C10.4408 3.11754 10.9517 2.73874 11.552 2.73874C12.3156 2.73874 12.9346 3.35183 12.9346 4.10811C12.9346 4.86439 12.3156 5.47748 11.552 5.47748C10.9517 5.47748 10.4408 5.09868 10.2497 4.56928L9.24738 4.56865L9.24755 5.42042C9.24755 5.70403 9.04121 5.93393 8.78667 5.93393C8.53213 5.93393 8.32579 5.70403 8.32579 5.42042L8.32576 4.56865L7.32366 4.56928C7.13251 5.09868 6.62161 5.47748 6.02138 5.47748Z" fill="#B9C5E0"/>
<path d="M16.3821 14.4211C16.9712 14.4211 17.3667 14.715 17.3716 15.2463C17.373 15.4043 17.3398 15.5631 17.2766 15.7607L17.2595 15.8129L17.0553 16.3821L16.4409 18.2783C16.1323 19.2319 15.2176 20 14.3226 20H3.23991C2.34495 20 1.43025 19.2319 1.12158 18.2783L0.512864 16.3985L0.335525 15.8838L0.306689 15.7918C0.244911 15.587 0.213271 15.4218 0.216786 15.2594C0.228412 14.7223 0.626425 14.4211 1.22588 14.4211H16.3821Z" fill="#B9C5E0"/>
<path d="M16.3821 14.4211C16.9712 14.4211 17.3667 14.715 17.3716 15.2463C17.373 15.4043 17.3398 15.5631 17.2766 15.7607L17.2595 15.8129L17.0553 16.3821L16.4409 18.2783C16.1323 19.2319 15.2176 20 14.3226 20H3.23991C2.34495 20 1.43025 19.2319 1.12158 18.2783L0.512864 16.3985L0.335525 15.8838L0.306689 15.7918C0.244911 15.587 0.213271 15.4218 0.216786 15.2594C0.228412 14.7223 0.626425 14.4211 1.22588 14.4211H16.3821Z" fill="#B9C5E0"/>
<path d="M16.9801 13.2372H0.593207C0.310387 13.2372 0.0811157 13.4643 0.0811157 13.7444V14.4545C0.0811157 14.7346 0.310387 14.9616 0.593207 14.9616H16.9801C17.2629 14.9616 17.4922 14.7346 17.4922 14.4545V13.7444C17.4922 13.4643 17.2629 13.2372 16.9801 13.2372Z" fill="#B9C5E0"/>
</svg>
