<svg width="20" height="20" viewBox="0 0 20 20" fill="none" xmlns="http://www.w3.org/2000/svg">
<path d="M10 1.81853C5.46953 1.81853 1.79688 5.49122 1.79688 10.0217C2.22896 20.903 17.7727 20.8999 18.2031 10.0216C18.2031 5.49122 14.5305 1.81853 10 1.81853ZM10.5129 4.32172L12.2061 3.19427C13.655 3.66699 14.9165 4.58729 15.809 5.82267L15.2629 7.77131L12.5884 8.62852L10.5129 7.10307V4.32172ZM7.79401 3.19427L9.48755 4.32193V7.10286L7.41174 8.62852L4.73713 7.77114L4.19104 5.82258C5.08354 4.58718 6.34508 3.66691 7.79401 3.19427ZM4.21198 14.2488C3.30746 13.0215 2.82053 11.5364 2.82276 10.0118L4.42201 8.7468L7.09448 9.60352L7.8918 12.0859L6.23756 14.3316L4.21198 14.2488ZM12.2286 16.8407C10.8376 17.3149 9.16219 17.3148 7.77122 16.8407L7.06543 14.9369L8.72201 12.688H11.2781L12.9344 14.937L12.2286 16.8407ZM15.7879 14.2488L13.7623 14.3317L12.1084 12.0859L12.9058 9.60346L15.5781 8.74697L17.1772 10.0119C17.1795 11.5365 16.6925 13.0216 15.7879 14.2488Z" fill="#B9C5E0"/>
</svg>
